<?xml version="1.0" encoding="UTF-8"?>
<svg width="210px" height="43px" viewBox="0 0 210 43" version="1.1" xmlns="http://www.w3.org/2000/svg" xmlns:xlink="http://www.w3.org/1999/xlink">
    <g id="Seznam_HP_Jede_ve_Feedu_03" stroke="none" stroke-width="1" fill="none" fill-rule="evenodd" transform="translate(-110.000000, -82.000000)">
        <g id="Group-3" transform="translate(110.000000, 50.000000)">
            <g id="Seznam-Logo" transform="translate(0.000000, 32.000000)">
                <path d="M20.7267779,2.80419817 C19.5449879,2.99256845 18.3726212,3.21269883 17.204689,3.46294654 C16.4319802,3.62612777 15.6598257,3.77835724 14.8965401,3.96946545 C14.1925658,4.14633638 13.4708535,4.30294654 12.7812913,4.52088657 C12.1144558,4.73006519 11.4570435,4.94581486 10.8040658,5.19551499 C9.53524906,5.68615385 8.33073236,6.38104302 7.28696571,7.24842243 C6.64784571,7.78232073 6.050299,8.36166884 5.54864801,9.03136897 C5.19499792,9.51050847 4.90065905,10.0033377 4.61574345,10.527927 C4.34912011,11.0251369 4.16508903,11.613794 4.16010023,12.1838331 C4.15123126,13.86 5.22215913,15.2634681 6.45494566,16.305528 C6.85959232,16.6466754 7.29140019,16.9598957 7.72819686,17.2594263 C9.0247291,18.1498044 10.4365579,18.9312125 11.8711135,19.612412 C13.3516768,20.3116819 14.8411091,20.9841199 16.3493879,21.6242503 C17.7745202,22.2265971 19.2323568,22.7374967 20.7034968,23.2232073 C21.1264357,23.3617471 21.5543634,23.5002868 21.9773023,23.6388266 C23.3104191,24.0796349 24.6718056,24.4864928 25.9954991,24.9628944 C26.8186501,25.2585919 27.6972323,25.5356714 28.519829,25.9058409 C29.3751301,26.2897001 30.2625812,26.6730117 31.0169978,27.2249804 C31.522529,27.5880313 31.9593256,28.0425293 32.2808257,28.5720469 C32.5984456,29.0938983 32.7963345,29.6918644 32.8096379,30.302425 C32.8284845,30.8883442 32.6583112,31.4583833 32.3406913,31.9539505 C31.5131057,33.2385919 30.0741157,34.1152803 28.6855679,34.6990091 C26.6118923,35.5685789 24.4877745,36.3204172 22.3265179,36.9523338 C21.0942857,37.3110039 19.8620535,37.6669361 18.6209523,37.9878227 C17.3748623,38.3098044 16.1054913,38.6487614 14.8460979,38.9619817 C13.5905846,39.2757497 12.3350713,39.5588527 11.0756779,39.8293611 C10.3539657,39.9815906 9.6272646,40.1332725 8.90998682,40.2816688 C8.47762464,40.3676402 8.05468574,40.4585398 7.62232355,40.5516297 C6.7210147,40.7465711 5.82026015,40.9398696 4.91451681,41.132073 C3.88460792,41.3576793 2.85414472,41.5772621 1.82479013,41.800678 C1.52546247,41.8658409 1.22668912,41.9452412 0.927915761,42.0114993 C0.661292415,42.0722816 -0.336466468,42.3022686 0.404092348,42.2584615 C1.43344693,42.2015124 4.18338127,41.9633116 10.0590725,41.1824511 C12.1881791,40.8325424 14.3261546,40.531369 16.4596957,40.1858409 C19.1170602,39.7548892 21.7566868,39.2478227 24.3774667,38.630691 C25.1268945,38.4554628 25.8713335,38.2670926 26.6163268,38.0650326 C27.1085545,37.9286832 27.5957935,37.7879531 28.0785979,37.637914 C30.1384157,37.003807 33.4443234,35.8839896 34.2259012,35.5461278 C37.2147434,34.2467014 39.0766723,33.2681617 40.04727,30.9381747 C40.3781934,30.1113168 40.5339546,29.1847979 40.4330701,28.2971578 C40.3321856,27.4845372 40.056139,26.66206 39.6287656,25.9600522 C39.2191301,25.2854237 38.6581679,24.7088136 38.074479,24.1771056 C36.9847045,23.1914472 35.7618956,22.3947066 34.4559401,21.7200782 C34.0884322,21.52897 33.7109468,21.3471708 33.3295812,21.1746806 C32.8556457,20.9594785 32.3822645,20.7568709 31.9038946,20.5570013 C31.2281901,20.2777314 30.5474968,20.0351499 29.8579346,19.8007823 C28.0647401,19.1918644 26.2438302,18.6470143 24.4417668,18.0632855 C23.4207268,17.7319948 22.4096645,17.3733246 21.4252091,16.9598957 C21.0067047,16.7868579 20.593189,16.6012256 20.1885424,16.4057366 C19.7107267,16.1762973 19.2462145,15.9244068 18.7861368,15.6538983 C18.2207401,15.3154889 17.2967045,14.7317601 17.5539046,13.9394003 C17.7335012,13.3737419 18.3537746,13.1536115 18.8598601,12.9510039 C19.3288068,12.7626336 19.825469,12.6312125 20.3127079,12.5041721 C21.8026945,12.1246936 23.3242768,11.8678748 24.8281212,11.5497262 C25.2693523,11.4566362 25.7105835,11.3613559 26.1523689,11.2595046 C27.3247356,10.9868057 28.5336868,10.7825554 29.6511768,10.3417471 C30.6123511,9.96719687 31.8440291,9.36758801 32.2032223,8.32279009 C32.7176224,6.79885267 32.1339334,5.15225554 31.2924901,3.86706649 C30.9892823,3.40599739 30.6766512,2.95423729 30.3545968,2.5019296 C29.9133656,1.88863103 29.4255724,1.31202086 28.9477567,0.728292047 C28.7315757,0.462711864 28.4693868,0.482972621 28.2487712,0.550873533 C27.9544323,0.651082138 27.1495735,1.58471969 20.7267779,2.80419817" id="Fill-3" fill="#CC0000"/>
                <path d="M119.208548,16.1518383 L119.296129,15.9514211 L119.397014,15.7789309 L119.484595,15.6201304 L119.572176,15.483781 L119.632041,15.3501695 L119.695787,15.2499609 L119.746783,15.1524902 L119.810529,15.0911604 L119.967399,14.8206519 L120.059415,14.6591134 L120.169722,14.5003129 L120.403641,14.105502 L120.546654,13.894133 L120.6941,13.6740026 L120.730685,13.6373142 L120.780573,13.6236245 L120.89088,13.6625033 L120.946311,13.6986441 L121.020035,13.785163 L121.166927,13.9943416 L121.318808,14.2758018 L121.488427,14.6591134 L121.668578,15.1158018 L121.866467,15.6699609 L121.903051,15.7674316 L121.967351,15.92897 L122.050498,16.1381486 L122.16524,16.4081095 L122.179098,16.4584876 L122.201825,16.5214602 L122.238963,16.6441199 L122.266125,16.7421382 L122.288851,16.8417992 L122.288851,16.9146284 L122.302709,16.989648 L122.288851,17.0120991 L122.288851,17.1123077 L122.216237,17.2097784 L122.16524,17.2711082 L122.04052,17.3209387 L121.875336,17.3713168 L121.668578,17.3959583 L121.539424,17.3959583 L121.415812,17.4074576 L120.192449,17.5049283 L119.957976,17.5049283 L119.773945,17.518618 L119.581045,17.518618 L119.433598,17.5301173 L119.282271,17.518618 L118.997356,17.518618 L118.858778,17.4939765 L118.772306,17.4687875 L118.698582,17.4211473 L118.656455,17.3576271 L118.61987,17.2711082 L118.638163,17.1873272 L118.656455,17.0734289 L118.721309,16.9507692 L118.813325,16.7919687 L118.895917,16.6556193 L118.969086,16.5329596 L119.042809,16.4332986 L119.09824,16.3352803 L119.149237,16.2608083 L119.171964,16.1879791 L119.208548,16.1518383 L119.208548,16.1518383 Z M111.373369,21.9677705 C111.373369,21.9677705 111.549086,22.0132203 111.549086,22.0154107 C112.214813,22.2043286 112.541856,22.64897 112.03189,23.2305085 C111.870586,23.417236 111.741431,23.6253194 111.612831,23.827927 L111.502524,24.0119166 C111.391661,24.1937158 111.309624,24.3634681 111.291331,24.577575 C111.291331,24.577575 111.299646,24.6887353 111.299646,24.6909257 C111.33235,24.988266 111.571812,25.3064146 111.718705,25.5604954 C112.026347,26.083442 112.348956,26.5483442 112.707595,27.0274837 C112.762471,27.1046936 113.548484,25.8167666 113.59948,25.744485 C113.879961,25.3584355 114.205896,25.016193 114.4958,24.6383572 C114.858319,24.1635984 115.254651,23.7145763 115.779029,23.4123077 C116.302852,23.1078488 116.904834,22.9868318 117.507923,22.9238592 C118.10547,22.857601 118.703017,22.8307692 119.296129,22.7990091 C120.518384,22.7354889 121.733432,22.5985919 122.946818,22.4814081 C123.415765,22.4354107 124.109761,22.3198696 124.5327,22.549309 C124.942336,22.7694394 125.254967,23.1505606 125.572032,23.4780183 C125.953398,23.8755671 126.325895,24.282425 126.685088,24.6969492 C127.113016,25.1881356 127.493827,25.7127249 127.967208,26.1666754 C128.265981,26.4574446 128.574732,26.712073 128.914525,26.9568449 L129.089687,27.0685528 C129.691668,27.3658931 130.115161,26.9754628 130.243761,26.3709257 C130.427792,25.4789048 129.916718,24.6115254 129.498768,23.8596871 C129.273718,23.4533768 129.053102,23.0235202 128.864637,22.6007823 C128.698898,22.2492308 128.533159,21.7087614 128.828052,21.3725424 C129.057537,21.1162712 129.530364,21.1025815 129.843549,21.0209909 C130.215491,20.9229726 130.579673,20.8118123 130.95217,20.7367927 C131.696609,20.5851108 132.436059,20.386884 133.19491,20.2921512 C133.618404,20.2417731 134.3124,19.9307432 134.676028,20.2981747 C135.153844,20.7729335 134.698755,21.6682399 134.514724,22.1764016 C134.21595,23.0235202 133.912742,23.902399 133.816847,24.7998957 C133.733146,25.616897 133.935469,26.4963233 134.459847,27.1479531 C134.846201,27.6276402 135.494745,28.0405215 136.10116,27.6928031 C136.583965,27.4135332 136.937615,26.8166623 137.15435,26.3216428 C137.558997,25.3765059 137.839478,24.3957757 138.160978,23.4232595 C138.450328,22.5471186 138.75021,21.6726206 139.080579,20.8074316 C139.323921,20.1760626 139.604403,19.5556454 139.848853,18.9264668 C140.005169,18.5179661 140.22135,18.1368449 140.391523,17.7343677 C140.528992,17.3937679 140.575554,16.9507692 140.915347,16.7372099 C141.328862,16.4809387 141.838828,17.2234681 142.037271,17.4824772 C142.413648,17.9659974 142.74956,18.4725163 143.094896,18.9768449 C143.475707,19.5216949 143.821042,20.2439635 144.437436,20.5549935 C145.499495,21.0954628 146.451246,19.8327249 147.048792,19.1559061 C147.463417,18.6931943 147.881367,18.2162451 148.30874,17.7524381 C148.763275,17.2552282 149.227787,16.762399 149.67955,16.265189 C149.97278,15.9470404 150.359135,15.3227901 150.841939,15.3134811 C151.259889,15.30691 151.357448,15.7586701 151.394032,16.0833898 C151.578618,17.6347066 151.646798,19.2128553 151.881271,20.7691004 C151.973287,21.3473533 152.088029,21.9223207 152.188914,22.4972881 L152.33636,23.3099087 C152.410083,23.6959583 152.487687,24.0820078 152.571388,24.4664146 C152.749876,25.2631551 152.93945,26.0604433 153.182792,26.839661 C153.398419,27.5005997 153.674466,28.2152021 154.226559,28.6790091 C154.883417,29.2287875 156.088488,29.0447979 156.510872,28.2770795 C156.598454,28.1155411 156.635592,27.9200522 156.672177,27.7388005 C156.7459,27.3571317 156.708761,26.9568449 156.676611,26.5729857 C156.566304,25.2040156 156.180503,23.8662581 156.156668,22.4852412 C156.152234,21.9152021 156.198796,21.3495437 156.244249,20.7822425 C156.340699,19.4581747 156.510872,18.1384876 156.584596,16.8127771 C156.676611,15.1908214 156.823504,13.4763233 156.350677,11.8954368 C156.217642,11.4414863 156.029177,11.0028683 155.784171,10.596558 C155.573533,10.2351499 155.30691,9.89235984 155.017006,9.5928292 C154.709363,9.27468057 154.373451,8.99760104 153.982662,8.78897001 C153.6146,8.59129074 153.13623,8.43468057 152.71828,8.41387223 C151.711652,8.36404172 150.667886,8.91601043 149.880765,9.4926206 C149.209495,9.98325945 148.603079,10.5417992 148.028259,11.1392177 C147.007219,12.211395 145.982299,13.3175228 145.076001,14.4937419 C144.813812,14.8365319 144.496747,15.4564016 143.968489,15.390691 C143.342672,15.3091004 143.011195,14.3776532 142.818849,13.8870143 C142.630383,13.4193742 142.419191,12.9698044 142.202456,12.5180443 C141.918094,11.9452673 141.627636,11.3779661 141.357132,10.798618 C141.130974,10.3172881 140.901489,9.81734029 140.551719,9.41541069 C140.152061,8.95653194 139.637107,8.73421121 139.067276,8.54803129 C138.662629,8.41661017 138.087809,8.250691 137.692586,8.48451108 C137.163219,8.79773142 137.264658,9.58352021 137.232508,10.0922295 C137.199804,10.5467275 137.149916,10.9869883 137.107788,11.4414863 C136.993046,12.5383051 136.924866,13.666884 136.67598,14.743442 C136.565672,15.2203911 136.404922,15.82 135.990298,16.1266493 C135.668798,16.3626597 135.264151,16.3308996 134.891655,16.3467797 C134.588447,16.3604694 134.280805,16.3511604 133.972608,16.342399 C133.273068,16.3265189 132.574637,16.2991395 131.875651,16.3172099 C131.27755,16.3352803 130.676123,16.3719687 130.074142,16.3944198 C129.540341,16.4174185 129.002106,16.4694394 128.46387,16.4694394 C127.861889,16.5033898 127.125765,16.5986701 126.560922,16.3352803 C126.114702,16.1244589 125.87524,15.6475098 125.677351,15.2247718 C125.392436,14.6235202 125.029917,14.0600522 124.689016,13.4872751 C124.381374,12.9763755 124.0826,12.4632855 123.769969,11.9567666 C123.319315,11.227927 122.873095,10.5012777 122.413017,9.77900913 C122.114244,9.30205997 121.801612,8.82730117 121.480112,8.36404172 C121.217924,7.98675359 120.886446,7.48078227 120.426368,7.32362451 C120.004538,7.17851369 119.590468,7.45340287 119.502887,7.86683181 C119.443576,8.13460235 119.507321,8.40949153 119.45189,8.67726206 C119.392579,8.96146023 119.277837,9.24073012 119.157551,9.5063103 C118.923632,10.042399 118.611001,10.5417992 118.293936,11.0324381 C117.227442,12.6724641 116.431452,14.4915515 115.479701,16.1972881 C115.300105,16.5148892 115.111639,16.8259192 114.932043,17.1440678 C114.6887,17.5892568 114.528505,17.9566884 113.994704,18.0979661 C113.515779,18.2228162 113.001933,18.159296 112.519129,18.2770274 C111.921582,18.4248761 111.745866,18.9335854 111.644981,19.4855541 C111.561835,19.9531943 111.549086,20.4301434 111.475362,20.9005215 C111.419931,21.2411213 111.336785,21.6244329 111.373369,21.9677705 L111.373369,21.9677705 Z" id="Fill-4" fill="#FFFFFF"/>
                <path d="M46.1803581,31.5697262 C45.6881304,31.5861538 45.2008915,31.6770535 44.7136526,31.6491265 C44.1432671,31.6173664 43.7846282,31.2745763 43.5734359,30.775176 C43.3251048,30.1772099 43.182647,29.5009387 43.0307659,28.8739505 C42.8927426,28.2809126 42.7824348,27.6977314 42.8467348,27.0915515 C42.8883081,26.7619035 42.9387504,26.5215124 43.2103625,26.2937158 C43.6377359,25.9443546 44.2352826,26.1716037 44.685937,25.9219035 C45.0905837,25.6973924 45.2241725,25.2083963 45.260757,24.7840156 C45.325057,24.0705085 45.2468993,23.305528 45.2103148,22.5903781 C45.100007,20.7504824 45.2241725,18.8744459 44.9891449,17.0460495 C44.9387026,16.6238592 44.8012336,16.140339 44.3272982,16.0149413 C43.3894048,15.7674316 43.3799815,14.8480313 43.3206703,14.0551239 C43.2835315,13.557914 43.279097,12.9719948 43.4814204,12.5043546 C43.7524782,11.8636767 44.4747447,11.5318383 45.108876,11.3390874 C45.7252692,11.1507171 46.3505314,10.9782269 46.9757937,10.8101173 C47.6104792,10.6398175 48.2678914,10.5467275 48.9158804,10.4372099 C49.5827159,10.3260495 50.2495514,10.2307692 50.9208214,10.1283703 C51.5737992,10.0265189 52.226777,9.93780965 52.8886237,9.8671708 C53.5050169,9.79926988 54.1252904,9.72425033 54.7461181,9.68810952 C55.4728192,9.64485007 56.2083892,9.6021382 56.934536,9.5747588 C57.588068,9.5473794 58.2404915,9.5610691 58.8890347,9.5654498 C59.537578,9.56983051 60.1811325,9.59720991 60.824687,9.61747066 C61.4865337,9.64046936 62.158358,9.69522816 62.8107815,9.78338983 C63.7625326,9.91097784 64.6682759,10.0741591 65.4869925,10.6031291 C66.3373048,11.1594785 66.9032558,12.2973664 66.0618125,13.137914 C65.2109459,13.9894133 63.8406904,13.8486832 62.7376125,13.8486832 C61.8313148,13.8464928 60.9305603,13.8711343 60.0248169,13.8963233 C59.1556581,13.9237027 58.2864992,14.012412 57.4129059,14.0666232 C56.6036126,14.1164537 55.7987538,14.1734029 54.9855803,14.2347327 C54.1485714,14.2982529 53.3071281,14.3776532 52.4701193,14.4597914 C51.8032837,14.5233116 51.1325681,14.5868318 50.4746015,14.7073012 C49.9230626,14.8069622 49.2745193,14.9049804 48.8515804,15.3047197 C48.5389493,15.60206 48.5250915,16.0992699 48.6536915,16.4875098 C48.9070114,17.2371578 50.0566514,17.0487875 50.6630671,17.0329074 C52.0427459,16.9918383 53.4080126,16.7673272 54.7827026,16.6764276 C55.4173881,16.6331682 56.0476392,16.6101695 56.6773359,16.5740287 C57.4406214,16.5285789 58.1994725,16.5033898 58.9671925,16.5400782 C59.6384625,16.5718383 60.2958748,16.6490482 60.953287,16.7826597 C61.7581458,16.9485789 62.5075736,17.2552282 63.2475781,17.5936375 C64.1948948,17.9183572 64.043568,19.1016949 63.8866981,19.8622947 C63.8041059,20.2620339 63.6710713,20.6135854 63.3074437,20.8370013 C62.4798581,21.3413299 61.3074914,21.2137419 60.3829015,21.2383833 C59.4727237,21.2641199 58.5581114,21.3429726 57.652368,21.4251108 C56.222247,21.5592699 54.7921259,21.6994524 53.3669936,21.8746806 C52.4934003,21.9836506 51.619807,22.1336897 50.7462136,22.2245893 C50.1575359,22.2875619 49.3848271,22.22897 48.9025769,22.6402086 L48.8149959,22.7146806 L48.7506959,22.751369 L48.7046881,22.8373403 L48.6492571,22.9512386 C48.584957,23.3142894 48.2080259,24.5113168 48.584957,24.7977053 L48.6631148,24.8338462 L48.7872804,24.8338462 C49.2656503,24.8360365 49.7390315,24.8092047 50.2174014,24.7878488 C50.9435482,24.7566362 51.6702492,24.7270665 52.4013848,24.6684746 C53.7993558,24.5545763 55.1967726,24.4412256 56.5947436,24.3207562 C57.5049214,24.2408083 58.4428148,24.1915254 59.3624159,24.1088396 C60.7415404,23.9872751 62.1212192,23.9144459 63.500898,23.8596871 C64.3373526,23.8257366 65.1422114,23.8394263 65.9282237,23.4960887 C66.8384015,23.0941591 67.5928181,22.3905085 68.4847036,21.9338201 C69.6110626,21.3594003 70.765137,20.8457627 71.9053537,20.303103 C73.3033247,19.6377836 74.6685915,18.8722555 76.0898436,18.2545763 C77.1840525,17.7798175 78.2826959,17.309987 79.3774591,16.8374185 C79.9062713,16.6101695 80.448387,16.3966102 80.9539181,16.1107692 C81.303688,15.9087093 82.2094314,15.4700913 81.9793925,14.9274316 C81.8602158,14.6459713 81.4971424,14.6049022 81.2299648,14.5731421 C80.1817636,14.448292 77.5521146,14.641043 75.942397,14.8863625 C73.3354747,15.3364798 72.9724014,15.6743416 72.2457003,14.9641199 C71.6941614,14.3803911 71.8316304,13.5557236 71.914777,12.833455 C71.9973692,12.0909257 72.3565624,10.9667275 72.609328,10.6874576 C73.3631903,9.71056063 75.8503814,9.59720991 77.0094447,9.51288136 C77.6069914,9.47016949 78.2139614,9.45209909 78.8164969,9.4471708 C79.6623747,9.44059974 80.503818,9.49754889 81.344707,9.49754889 C82.0763969,9.529309 82.8025436,9.5747588 83.5292447,9.64704042 C84.3568302,9.72917862 85.2625736,9.74943937 86.0674324,10.0035202 C86.3296213,10.0878488 86.5912558,10.1743677 86.8395869,10.2899087 C87.671607,10.6737679 88.430458,11.1759061 88.9958547,11.8932464 C89.3317669,12.3181747 89.5523825,12.8060756 89.6626902,13.3306649 C89.7181213,13.583103 89.7547058,13.8306128 89.7181213,14.086884 C89.6904058,14.2758018 89.6349747,14.6525424 89.515798,14.8025815 L89.4653557,14.8661017 C89.3500591,15.1158018 89.1288892,15.3408605 88.9271202,15.5204694 C87.9432191,16.3741591 86.5086636,16.685189 85.3224391,17.1687093 C84.7337614,17.409648 84.1545069,17.6867275 83.5752524,17.947927 C81.9472425,18.6816949 80.3336447,19.444485 78.6734848,20.110352 C77.308218,20.6617731 75.9468315,21.2279791 74.6369958,21.9015124 C74.2778026,22.0882399 73.7539792,22.3538201 73.5377981,22.7146806 C73.321617,23.0963494 73.7905637,23.0941591 74.0937715,23.1007301 C74.4252492,23.1122295 74.760607,23.0919687 75.0965192,23.0673272 C76.103147,22.9868318 77.1103292,22.8920991 78.1219458,22.7825815 C79.1518547,22.6692308 80.1906326,22.5783312 81.2210958,22.4491004 C82.1911391,22.3264407 83.1611825,22.2021382 84.1267914,22.0970013 C85.1844158,21.9858409 86.2143247,21.9475098 87.2719491,21.9453194 C88.334008,21.9453194 89.3683514,21.9584615 90.4171068,22.1314993 L90.5734224,22.1561408 L90.8489147,22.1698305 C91.2907002,22.1698305 91.754658,22.1112386 91.9802624,21.6726206 C92.3477703,20.9634941 92.5595169,20.1081617 92.8261402,19.3563233 C93.1664869,18.3816167 93.5201369,17.409648 93.8743413,16.4398696 C93.9203491,16.3057106 93.9713457,16.1720991 94.0217879,16.03794 C94.4258803,14.9411213 94.821658,13.8393742 95.2628891,12.7562451 C95.4374969,12.3181747 95.621528,11.884485 95.7639858,11.4321773 C95.8704134,11.0937679 95.9203014,10.7509778 96.0810514,10.4284485 C96.3482291,9.91097784 96.8310335,9.57694915 97.3731492,9.9536897 C97.8105001,10.2581486 98.1092735,10.7871186 98.3620391,11.2459974 C98.6236736,11.7295176 98.8498323,12.211395 98.9734435,12.7496741 C99.0976091,13.2923338 98.9645746,13.7736636 98.7988357,14.2938722 C98.6286624,14.8277705 98.4080468,15.3567405 98.2655891,15.8994003 C97.9573924,17.0646675 99.1159013,18.0048761 100.007787,18.5360365 C100.812646,19.0173664 101.736681,19.3426336 102.601406,19.7034941 C103.249395,19.973455 103.897938,20.2576532 104.582511,20.3912647 C104.992147,20.4690222 105.511536,20.5506128 105.874609,20.293794 C106.462733,19.8716037 106.642329,19.0474837 106.840772,18.3974967 C107.07968,17.5980183 107.258168,16.778279 107.438319,15.9629205 C107.59408,15.288292 107.699954,14.6027119 107.773677,13.9143937 C107.833542,13.371734 107.883985,12.826884 107.916689,12.2842243 C107.952165,11.5772881 107.898397,10.8960887 107.888419,10.1924381 C107.888419,9.73794003 107.971011,9.14983051 108.29362,8.79554107 C108.707136,8.32735332 109.424968,8.56829205 109.773629,9.0134811 C109.783052,9.02279009 109.902229,9.17501956 109.902229,9.17501956 C110.11453,9.529309 110.270291,9.91754889 110.389468,10.3123598 C110.596226,11.0209387 110.712077,11.7503259 110.7858,12.4813559 C110.849546,13.0853455 110.890565,13.6893351 110.9144,14.2960626 C110.987015,16.3878488 110.840677,18.4840156 110.555207,20.5549935 C110.398891,21.6726206 110.151115,22.7601304 109.912207,23.8596871 C109.773629,24.4642243 109.66831,25.0857366 109.406121,25.6535854 C109.230959,26.0259452 108.987617,26.3868057 108.71157,26.6918123 C108.577981,26.839661 108.431089,26.9639635 108.26535,27.0685528 C107.69053,27.4255802 106.941103,27.4118905 106.288679,27.3478227 C105.378501,27.2640417 104.504908,27.0318644 103.649607,26.7208344 C103.106937,26.5280834 102.583113,26.3189048 102.06317,26.0757757 C101.534358,25.8266232 101.001111,25.5763755 100.490591,25.289987 C99.9761912,25.0019557 99.4745402,24.683807 98.9961703,24.3453977 C98.5366469,24.0256063 98.0865468,23.6691265 97.6952036,23.2715776 C97.3504224,22.9216688 97.0932224,22.4715515 96.771168,22.101382 C96.4258325,21.7109518 96.1597635,21.5795306 95.9341591,22.1178096 C95.7966901,22.4671708 95.7229668,22.8351499 95.6398203,23.2031291 C95.5017969,23.8459974 95.3088969,24.4822947 95.1071279,25.1109257 C94.9136735,25.7307953 94.0810992,27.452412 93.1753558,26.6507432 C92.8815713,26.391734 92.6698247,26.0577053 92.2280392,26.0626336 C91.7779391,26.0692047 91.3500114,26.2510039 90.9132147,26.3462842 C90.4536913,26.4486832 89.9753214,26.5028944 89.5063747,26.5959844 C88.6189236,26.7750456 87.7314725,26.9798435 86.8490102,27.1550717 C86.2603325,27.2684224 85.6716547,27.350013 85.0874115,27.4502216 C84.5225691,27.545502 83.9521836,27.6177836 83.3817981,27.7026597 C82.7936746,27.788631 82.2094314,27.881721 81.6251881,27.9496219 C80.7061413,28.0629726 79.7909747,28.1719426 78.8758081,28.2677705 C78.1402381,28.3635984 77.4096569,28.4358801 76.677967,28.519661 C76.0665625,28.5859192 75.4595925,28.6488918 74.8481881,28.7085789 C73.8227137,28.8060495 72.8066625,28.8947588 71.777308,28.9281617 C70.2274558,28.9829205 68.622727,29.0738201 67.0961559,28.7699087 C66.7558092,28.7036506 66.2502781,28.6631291 65.9925237,28.4128814 C65.8090469,28.2360104 65.9559392,27.9337419 65.8179159,27.7251108 L65.7951891,27.6884224 L65.7353236,27.6249022 L65.6798926,27.5865711 L65.620027,27.561382 L65.4964158,27.561382 L65.4315615,27.5865711 L65.3583925,27.6117601 L65.2935381,27.6615906 L65.1649381,27.7497523 L65.0823459,27.8472229 L65.0180458,27.9594785 L64.980907,28.083781 C64.6499837,29.1400782 63.5280592,29.5370795 62.5075736,29.6668579 L46.1803581,31.5697262"  id="Fill-5" fill="#FFFFFF"/>
                <path d="M198.614634,23.3756193 C196.472224,23.5283963 194.452871,23.8865189 192.277757,23.6822686 C191.575445,23.6143677 190.36594,23.5568709 189.772828,23.1735593 C188.035064,22.0427901 194.122502,20.0282138 194.87193,19.764824 C196.98219,19.0201043 201.235414,17.8071969 201.235414,17.8071969 C201.235414,17.8071969 205.230884,16.8259192 205.350615,14.7001825 C205.496953,12.1204954 202.811873,10.9530378 200.757044,10.3079791 C199.901743,10.1196089 199.060854,9.9766884 198.191141,9.89016949 C197.608007,9.83102999 197.01434,9.80638853 196.425662,9.78612777 C195.31815,9.74724902 194.237244,9.85402868 193.133058,9.9854498 C192.002819,10.1196089 189.59822,10.1897001 189.24845,11.5937158 C189.073288,12.3088657 188.255126,13.7829726 188.940253,14.4302216 C189.6664,15.1179922 190.848744,14.8321512 191.741184,14.7456323 C192.972862,14.625163 194.191237,14.3984615 195.41848,14.2779922 C196.324778,14.1892829 197.506013,13.9916037 198.251007,14.6481617 C199.165619,15.4635202 196.738293,16.2356193 196.255489,16.4398696 C194.42183,17.2119687 192.50447,17.7661278 190.664713,18.5228944 C188.940253,19.2314733 187.211359,19.9126728 185.529027,20.7072229 C184.755764,21.0702738 184.034606,21.5182008 183.308459,21.9540808 L182.958689,21.7175228 L180.839006,21.9403911 C180.839006,21.9403911 178.718768,22.1134289 178.714888,22.1134289 C177.29419,22.22897 175.854091,22.2694915 174.429513,22.3357497 C173.717224,22.3603911 172.599734,22.3883181 172.038218,21.8631812 C170.811529,20.7121512 171.495548,19.117575 172.305396,18.0048761 C173.192292,16.7941591 174.438382,15.8972099 175.716622,15.1344198 C176.576358,14.6235202 177.528109,14.205163 178.493718,13.9187744 C179.146696,13.7238331 179.823509,13.5622947 180.503093,13.4626336 C180.599543,13.6488136 180.709851,13.8349935 180.816279,14.0167927 C180.871156,14.121382 182.457592,13.4626336 182.608919,13.3854237 C183.096158,13.1357236 183.776851,12.6335854 183.791263,12.0274055 C183.81399,11.2892568 183.169881,10.5532986 182.586192,10.1853194 C181.933214,9.77462842 181.192656,9.63773142 180.42549,9.63116037 C179.592916,9.61966102 178.755907,9.67003911 177.93719,9.77681877 C177.357936,9.85402868 176.788659,9.9810691 176.222153,10.14206 C175.284814,10.4125684 174.392929,10.7783572 173.542062,11.2481877 C172.410715,11.8729857 171.307082,12.708605 170.42074,13.6400522 C169.997247,14.0825033 169.615327,14.5753325 169.297707,15.0977314 C168.888626,15.7652412 168.589852,16.5033898 168.35039,17.2464668 C167.702956,19.3015645 167.90029,21.8609909 168.838738,23.8005476 C169.481738,25.1333768 170.480051,26.2898827 171.757737,27.0663625 C173.367454,28.0449022 175.403991,28.3679791 177.247628,28.0180704 C178.020891,27.8746023 178.706019,27.6747327 179.418308,27.3888918 C180.171616,27.0866232 180.908294,26.8643025 181.611714,26.4618253 C181.749183,26.3889961 183.253028,25.5380443 183.3395,25.651395 C183.574528,25.9536636 183.711997,26.3238331 183.965317,26.612412 C184.209213,26.8916819 184.51741,27.1457627 184.811195,27.3637027 C185.432577,27.8242243 186.135997,28.0060235 186.893739,28.0952803 C188.792807,28.3197914 190.720144,28.4336897 192.63307,28.4588787 C194.158532,28.4791395 195.703396,28.376193 197.221098,28.2360104 C198.205553,28.1451108 199.189454,28.0180704 200.168367,27.8997914 C202.660547,27.5975228 204.720919,27.0499348 207.419857,25.8994524 C208.693108,25.3064146 209.484109,24.5452673 209.971348,23.9823468 C209.685878,23.8054759 209.355509,23.6505085 209.042323,23.526206 C207.078956,22.7464407 204.839541,22.7146806 202.752562,22.978618 C201.790833,23.0990874 200.830768,23.1916297 199.869593,23.2759583 C199.451643,23.3142894 199.032584,23.3465971 198.614634,23.3756193" id="Fill-6" fill="#FFFFFF"/>
                <path d="M165.358222,25.5785658 C165.380949,25.2182529 165.33993,24.8562973 165.233502,24.577575 C164.953021,23.8503781 164.175878,23.1122295 163.403723,22.9714993 C162.704738,22.8471969 161.863295,22.978618 161.292909,23.4210691 C160.985267,23.6620078 160.649909,24.0502477 160.488605,24.4116558 C160.1344,25.2040156 160.170985,26.3807823 160.690928,27.0822425 C161.568956,28.2699609 163.427004,28.2699609 164.460794,27.3067536 C164.957456,26.8478748 165.307226,26.2625033 165.358222,25.5785658" id="Fill-7" fill="#FFFFFF"/>
            </g>
        </g>
    </g>
</svg>